<svg width="60" height="60" viewBox="0 0 60 60" fill="none" xmlns="http://www.w3.org/2000/svg">
<rect width="60" height="60" fill="#5C468F"/>
<g clip-path="url(#clip0_1403_9008)">
<path fill-rule="evenodd" clip-rule="evenodd" d="M36.1008 38.7794C35.8061 38.6418 35.4826 38.6819 35.1706 38.6304C33.5241 38.3668 32.0856 37.702 30.9071 36.5158C30.8435 36.4527 30.7742 36.3954 30.7049 36.3438C30.676 36.3209 30.6413 36.3094 30.6067 36.298C30.5027 36.3782 30.572 36.4527 30.6009 36.5272C30.7915 36.9914 30.9937 37.4499 31.1844 37.914C31.2306 38.0286 31.3173 38.1318 31.2768 38.2693C31.1671 38.361 31.0342 38.3266 30.9129 38.3266C29.4224 38.3324 27.9261 38.3209 26.4356 38.3381C26.1525 38.3381 26.0138 38.2407 25.8983 37.9885C24.3442 34.4986 22.7844 31.0143 21.2188 27.5358C21.1552 27.3868 21.1148 27.2264 20.9877 27.1117C20.797 27.3295 18.4053 32.7221 18.2551 33.2665C18.3706 33.404 18.5324 33.3524 18.6768 33.3524C19.6589 33.3582 20.6468 33.3582 21.6347 33.3639C21.7676 33.3639 21.9063 33.3467 22.0334 33.3925C22.068 33.5358 21.9929 33.6275 21.9467 33.7307C21.3285 35.1404 20.6931 36.5501 20.0865 37.9713C19.9651 38.2464 19.8207 38.3381 19.5203 38.3381C16.6895 38.3266 13.8529 38.3324 11.0221 38.3266C10.9008 38.3266 10.7679 38.3553 10.6523 38.2865C10.7043 38.0057 18.1858 21.1003 18.5266 20.5043H23.3968C25.2339 24.5425 27.0749 28.5903 28.9197 32.6476C29.07 32.5559 29.018 32.4642 29.0122 32.3839C28.9197 31.043 28.7926 29.7077 28.8446 28.361C28.8909 27.1289 29.0757 25.914 29.4686 24.7392C30.1272 22.7794 31.4213 21.3868 33.3682 20.6361C35.6155 19.7708 37.8975 19.7937 40.139 20.6705C42.109 21.4384 43.3973 22.8653 44.0386 24.8596C44.1657 25.255 44.2697 25.6562 44.391 26.0516C44.4199 26.1433 44.4025 26.2521 44.5585 26.361C44.5585 25.6848 44.5643 25.0487 44.5643 24.4183C44.5643 23.7765 44.5643 23.1404 44.5643 22.4986C44.5643 21.8625 44.5585 21.2264 44.5643 20.5731H49.2323C49.3594 20.6991 49.3247 20.8424 49.3247 20.9799C49.3247 26.6648 49.3247 32.3496 49.3247 38.0344C49.3247 38.1605 49.3478 38.2865 49.2554 38.4241H44.6394C44.6048 37.4728 44.6221 36.5158 44.599 35.553C44.5701 34.5903 44.5585 33.6275 44.4777 32.6533C44.443 32.7794 44.4083 32.9054 44.3794 33.0372C43.7902 35.7822 42.0801 37.5129 39.4284 38.3725C38.8911 38.5501 38.325 38.6476 37.7588 38.6934C37.6317 38.6991 37.5046 38.7049 37.3948 38.7794H36.1008ZM34.0383 29.4384C34.0383 29.7249 34.021 30.0172 34.0383 30.3037C34.0845 30.9799 34.177 31.6504 34.4254 32.2865C34.564 32.659 34.7836 32.9799 35.1244 33.1977C35.9159 33.702 36.7709 33.8338 37.6664 33.553C38.5618 33.2665 39.0298 32.5903 39.2262 31.7192C39.5266 30.3897 39.5208 29.0544 39.3475 27.7135C39.2898 27.2665 39.1858 26.8252 39.0125 26.4069C38.8045 25.9198 38.4578 25.5702 37.9783 25.3582C37.1118 24.9857 36.251 25.0544 35.4017 25.4212C34.9915 25.5988 34.6969 25.9026 34.5063 26.298C34.3965 26.5272 34.3156 26.7622 34.2578 27.0086C34.073 27.8109 34.0152 28.6189 34.0383 29.4384Z" fill="white"/>
<path d="M9 39.0945H50.9827V39.9771H9V39.0945Z" fill="white"/>
</g>
<defs>
<clipPath id="clip0_1403_9008">
<rect width="42" height="20" fill="white" transform="translate(9 20)"/>
</clipPath>
</defs>
</svg>
