<?xml version="1.0" encoding="UTF-8" standalone="no"?>
<!-- Created with Inkscape (http://www.inkscape.org/) -->

<svg
   xmlns:dc="http://purl.org/dc/elements/1.1/"
   xmlns:cc="http://creativecommons.org/ns#"
   xmlns:rdf="http://www.w3.org/1999/02/22-rdf-syntax-ns#"
   xmlns:svg="http://www.w3.org/2000/svg"
   xmlns="http://www.w3.org/2000/svg"
   xmlns:sodipodi="http://sodipodi.sourceforge.net/DTD/sodipodi-0.dtd"
   xmlns:inkscape="http://www.inkscape.org/namespaces/inkscape"
   width="127.56103"
   height="23.785311"
   viewBox="0 0 33.750522 6.2931968"
   version="1.1"
   id="svg7398"
   inkscape:version="0.92.4 (5da689c313, 2019-01-14)"
   sodipodi:docname="mastec.svg">
  <defs
     id="defs7392" />
  <sodipodi:namedview
     id="base"
     pagecolor="#ffffff"
     bordercolor="#666666"
     borderopacity="1.0"
     inkscape:pageopacity="0.0"
     inkscape:pageshadow="2"
     inkscape:zoom="11.472726"
     inkscape:cx="63.280517"
     inkscape:cy="11.392656"
     inkscape:document-units="mm"
     inkscape:current-layer="layer1"
     showgrid="false"
     fit-margin-top="0"
     fit-margin-left="0"
     fit-margin-right="0"
     fit-margin-bottom="0"
     units="px"
     inkscape:window-width="1920"
     inkscape:window-height="1001"
     inkscape:window-x="-9"
     inkscape:window-y="-9"
     inkscape:window-maximized="1" />
  <metadata
     id="metadata7395">
    <rdf:RDF>
      <cc:Work
         rdf:about="">
        <dc:format>image/svg+xml</dc:format>
        <dc:type
           rdf:resource="http://purl.org/dc/dcmitype/StillImage" />
        <dc:title></dc:title>
      </cc:Work>
    </rdf:RDF>
  </metadata>
  <g
     inkscape:label="Layer 1"
     inkscape:groupmode="layer"
     id="layer1"
     transform="translate(7.67154,-175.03659)">
    <g
       transform="translate(341.84832,118.87087)"
       id="g7350">
      <path
         d="m -337.45854,62.242199 h 0.90254 v -2.736862 c 0,-1.297411 -0.49083,-1.745023 -1.76586,-1.745023 -0.81057,0 -1.73948,0.210732 -1.80108,1.18861 h 0.90254 c 0,-0.433209 0.47553,-0.503896 0.94264,-0.503896 0.74853,0 0.81922,0.371385 0.81922,0.87506 v 0.15888 h -0.81922 c -0.96214,0 -2.03132,0.342579 -2.03132,1.485541 0,0.896776 0.72726,1.362116 1.57817,1.362116 0.46512,0 0.93001,-0.1755 1.27237,-0.500351 z m 0,-2.078517 v 0.149573 c 0,0.721498 -0.38623,1.328877 -1.18462,1.328877 -0.43875,0 -0.76338,-0.255272 -0.76338,-0.712856 0,-0.580566 0.51786,-0.765594 1.0089,-0.765594"
         style="fill:#2a4a97;fill-opacity:1;fill-rule:nonzero;stroke:none;stroke-width:0.2215903"
         id="path6483"
         inkscape:connector-curvature="0" />
      <path
         d="m -332.0244,58.938425 c -0.0177,-0.396425 -0.47287,-0.49326 -0.7441,-0.49326 -0.32397,0 -0.83185,0.07933 -0.83185,0.528714 0,0.378255 0.2453,0.501681 0.58101,0.563283 0.88769,0.176386 2.09802,0.29959 2.09802,1.488422 0,1.064077 -1.14873,1.300957 -2.00119,1.300957 -0.81766,0 -1.73771,-0.271448 -1.73771,-1.247997 h 0.90254 c 0.0175,0.519408 0.5624,0.563504 0.85224,0.563504 0.37803,0 1.08158,-0.105698 1.08158,-0.616464 0,-0.449164 -0.36053,-0.519629 -0.72083,-0.581231 -0.38712,-0.07069 -0.94974,-0.202755 -1.3096,-0.369835 -0.43787,-0.184806 -0.64838,-0.598958 -0.64838,-1.056985 0,-1.028844 1.04259,-1.257082 1.73417,-1.257082 0.8057,0 1.64664,0.342135 1.64664,1.045685 v 0.132289"
         style="fill:#2a4a97;fill-opacity:1;fill-rule:nonzero;stroke:none;stroke-width:0.2215903"
         id="path6495"
         inkscape:connector-curvature="0" />
      <path
         d="m -327.64007,62.242381 h -0.90232 v -5.114969 h -1.60431 v -0.828304 h 4.11139 v 0.828304 h -1.60476"
         style="fill:#2a4a97;fill-opacity:1;fill-rule:nonzero;stroke:none;stroke-width:0.2215903"
         id="path6507"
         inkscape:connector-curvature="0" />
      <path
         d="m -321.29602,60.221276 v -0.272778 c 0,-1.282564 -0.53425,-2.188204 -1.90545,-2.188204 -1.3794,0 -2.01891,1.002253 -2.01891,2.311409 0,1.375189 0.74454,2.254902 2.13236,2.254902 0.6805,0 1.58193,-0.228459 1.62603,-1.064741 h -0.89323 c -0.0962,0.282085 -0.42745,0.308675 -0.68937,0.308675 -0.80238,0 -1.31735,-0.546885 -1.27348,-1.349263 z m -3.02205,-0.756509 c 0.035,-0.588101 0.54955,-0.948185 1.09909,-0.948185 0.57569,0 1.012,0.360084 1.02064,0.948185"
         style="fill:#2a4a97;fill-opacity:1;fill-rule:nonzero;stroke:none;stroke-width:0.2215903"
         id="path6519"
         inkscape:connector-curvature="0" />
      <path
         d="m -316.80395,59.027318 c -0.0175,-0.316874 -0.37803,-0.510544 -0.71219,-0.510544 -0.87927,0 -1.06386,0.774236 -1.06386,1.496178 0,0.695128 0.16686,1.557558 1.01976,1.557558 0.3869,0 0.75629,-0.290505 0.75629,-0.668981 h 0.90232 c 0,0.932673 -0.90232,1.425047 -1.71977,1.425047 -1.30029,0 -1.86113,-1.117037 -1.86113,-2.304982 0,-1.179082 0.65701,-2.261108 1.94002,-2.261108 0.81745,0 1.50947,0.404403 1.64088,1.266832"
         style="fill:#2a4a97;fill-opacity:1;fill-rule:nonzero;stroke:none;stroke-width:0.2215903"
         id="path6531"
         inkscape:connector-curvature="0" />
      <path
         inkscape:connector-curvature="0"
         id="path6541"
         style="fill:#2a4a97;fill-opacity:1;fill-rule:nonzero;stroke:none;stroke-width:0.2215903"
         d="m -346.31456,62.241524 h 0.90254 v -1.932932 h -0.90254 z" />
      <path
         d="m -343.51253,56.298011 -0.69491,2.286369 h -0.0173 l -0.69491,-2.286369 h -1.39491 v 3.096724 h 0.90254 v -2.108653 h 0.0175 l 0.81789,3.02648 h 0.72106 l 0.81789,-3.02648 h 0.0175 v 4.95631 h 0.90254 v -5.944381"
         style="fill:#2a4a97;fill-opacity:1;fill-rule:nonzero;stroke:none;stroke-width:0.2215903"
         id="path6553"
         inkscape:connector-curvature="0" />
      <path
         inkscape:connector-curvature="0"
         id="path6563"
         style="fill:#2a4a97;fill-opacity:1;fill-rule:nonzero;stroke:none;stroke-width:0.2215903"
         d="m -347.22685,60.308592 h 0.91473 v -0.914725 h -0.91473 z" />
      <path
         inkscape:connector-curvature="0"
         id="path6573"
         style="fill:#2a4a97;fill-opacity:1;fill-rule:nonzero;stroke:none;stroke-width:0.2215903"
         d="m -348.30599,59.22146 h 0.9145 v -0.915168 h -0.9145 z" />
      <path
         inkscape:connector-curvature="0"
         id="path6583"
         style="fill:#2a4a97;fill-opacity:1;fill-rule:nonzero;stroke:none;stroke-width:0.2215903"
         d="m -348.30821,61.390164 h 0.91451 v -0.914946 h -0.91451 z" />
      <path
         inkscape:connector-curvature="0"
         id="path6593"
         style="fill:#2a4a97;fill-opacity:1;fill-rule:nonzero;stroke:none;stroke-width:0.2215903"
         d="m -349.38757,60.302821 h 0.91472 v -0.914947 h -0.91472 z" />
    </g>
  </g>
</svg>
