<?xml version="1.0" encoding="UTF-8" standalone="no"?>
<!DOCTYPE svg PUBLIC "-//W3C//DTD SVG 1.1//EN" "http://www.w3.org/Graphics/SVG/1.1/DTD/svg11.dtd">
<svg width="100%" height="100%" viewBox="0 0 89 71" version="1.1" xmlns="http://www.w3.org/2000/svg" xmlns:xlink="http://www.w3.org/1999/xlink" xml:space="preserve" xmlns:serif="http://www.serif.com/" style="fill-rule:evenodd;clip-rule:evenodd;stroke-linejoin:round;stroke-miterlimit:1.41421;">
    <g transform="matrix(1,0,0,1,-467,-49)">
        <path d="M551.357,68.304C549.348,64.649 546.446,61.661 542.909,59.376C545.11,61.289 546.97,63.542 548.388,66.125C550.387,69.763 551.335,73.721 551.335,77.76C551.326,90.557 541.894,104.172 526.44,111.876C518.803,115.685 510.763,117.511 503.254,117.511C498.341,117.511 493.649,116.724 489.446,115.195C500.258,120.658 515.606,120.401 529.608,113.419C549.785,103.366 559.524,83.17 551.357,68.304Z" style="fill:rgb(199,47,65);fill-rule:nonzero;"/>
        <path d="M474.514,102.986C472.514,99.348 471.566,95.39 471.566,91.351C471.576,78.554 481.006,64.939 496.459,57.235C504.098,53.426 512.138,51.6 519.648,51.6C524.105,51.6 528.382,52.248 532.274,53.51C521.554,48.703 506.863,49.205 493.416,55.908C473.242,65.962 463.505,86.162 471.672,101.023C473.777,104.858 476.87,107.959 480.646,110.282C478.157,108.257 476.074,105.821 474.514,102.986Z" style="fill:rgb(199,47,65);fill-rule:nonzero;"/>
        <path d="M533.59,78.742L531.456,78.746L531.11,78.732L517.553,78.732C518.378,79.303 518.743,80.201 518.734,81.158C518.731,81.502 518.69,81.854 518.621,82.222C518.347,83.654 517.474,84.989 515.887,85.754C516.144,85.949 516.36,86.17 516.535,86.414C516.883,86.911 517.046,87.504 517.046,88.133C517.046,88.49 516.994,88.86 516.902,89.246C516.598,90.547 515.815,91.678 514.481,92.426C514.332,92.51 514.174,92.592 514.01,92.666L520.67,92.666L521.412,88.877L531.706,88.877C532.807,88.879 533.875,88.003 534.091,86.945C534.31,85.894 533.59,85.037 532.49,85.034L531.806,85.039L529.598,85.044L522.821,85.046C522.149,85.046 521.712,84.523 521.842,83.88C521.974,83.237 522.626,82.718 523.296,82.721L531.727,82.716L532.771,82.714C533.918,82.714 535.032,81.828 535.258,80.729C535.483,79.634 534.734,78.746 533.59,78.742ZM516.005,89.03C516.084,88.704 516.12,88.404 516.12,88.133C516.12,87.653 516.007,87.274 515.777,86.95C515.549,86.621 515.186,86.335 514.634,86.1C514.63,86.1 514.625,86.095 514.62,86.093C514.603,86.086 514.589,86.076 514.572,86.066C514.565,86.062 514.555,86.057 514.548,86.052C514.526,86.035 514.505,86.018 514.486,85.999C514.483,85.994 514.478,85.992 514.474,85.987C514.459,85.97 514.445,85.954 514.433,85.934C514.428,85.925 514.423,85.918 514.418,85.91C514.411,85.894 514.402,85.879 514.394,85.862C514.39,85.85 514.385,85.841 514.38,85.831C514.38,85.824 514.375,85.817 514.37,85.81C514.37,85.8 514.37,85.795 514.368,85.788C514.363,85.771 514.361,85.754 514.358,85.738C514.356,85.723 514.354,85.711 514.354,85.697C514.354,85.68 514.354,85.666 514.354,85.649C514.356,85.634 514.356,85.62 514.358,85.608C514.363,85.591 514.366,85.577 514.368,85.56C514.373,85.546 514.378,85.531 514.382,85.517C514.385,85.51 514.385,85.502 514.39,85.495C514.392,85.488 514.397,85.483 514.399,85.476C514.406,85.462 514.414,85.45 514.423,85.435C514.43,85.423 514.438,85.409 514.447,85.397C514.457,85.385 514.466,85.375 514.474,85.366C514.486,85.354 514.495,85.342 514.51,85.332C514.519,85.322 514.531,85.315 514.541,85.306C514.555,85.296 514.567,85.286 514.582,85.279C514.591,85.272 514.603,85.265 514.618,85.26C514.632,85.253 514.649,85.246 514.666,85.241C514.67,85.238 514.675,85.234 514.682,85.234C516.574,84.655 517.418,83.462 517.714,82.044C517.776,81.722 517.81,81.425 517.81,81.158C517.798,80.383 517.577,79.874 516.991,79.464C516.398,79.054 515.345,78.778 513.71,78.78L497.23,78.78C497.292,78.816 497.354,78.854 497.414,78.895C498.528,79.603 499.022,80.748 499.008,82.049C499.008,82.517 498.95,83.014 498.85,83.537C498.554,85.046 497.779,86.429 496.399,87.403C496.08,87.629 495.73,87.83 495.348,88.01L494.405,92.666L502.495,92.666L508.774,92.662C511.198,92.662 512.897,92.263 514.025,91.622C515.153,90.977 515.738,90.118 516.005,89.03ZM510.024,88.589C509.892,89.232 509.239,89.75 508.57,89.75L501.35,89.755L501.828,87.427L509.047,87.425C509.717,87.425 510.154,87.948 510.024,88.589ZM511.114,82.978C510.982,83.618 510.331,84.139 509.659,84.137L502.44,84.139L502.918,81.814L510.137,81.809C510.809,81.811 511.246,82.334 511.114,82.978Z" style="fill:rgb(27,94,168);fill-rule:nonzero;"/>
        <path d="M522.878,91.178L526.397,91.178L526.224,92.035L523.853,92.035L523.738,92.645L525.924,92.645L525.77,93.418L523.586,93.418L523.445,94.145L525.835,94.145L525.66,95.004L522.13,95.004" style="fill:rgb(199,47,65);fill-rule:nonzero;"/>
        <path d="M526.894,92.222L527.945,92.222L527.87,92.561L527.885,92.561C528.031,92.374 528.41,92.143 528.972,92.143C529.546,92.143 529.906,92.448 529.925,92.926C529.932,93.108 529.872,93.386 529.841,93.526L529.522,95.004L528.47,95.004L528.77,93.53C528.797,93.403 528.823,93.283 528.818,93.178C528.809,92.957 528.643,92.839 528.42,92.839C527.772,92.839 527.722,93.37 527.63,93.826L527.398,95.004L526.346,95.004" style="fill:rgb(199,47,65);fill-rule:nonzero;"/>
        <path d="M531.331,93.835C531.326,93.89 531.322,93.931 531.326,94.022C531.37,94.313 531.566,94.469 531.912,94.469C532.272,94.469 532.44,94.349 532.512,94.164L533.537,94.164C533.311,94.826 532.675,95.086 531.898,95.086C531.007,95.086 530.342,94.692 530.306,93.874C530.263,92.89 530.978,92.143 532.14,92.143C532.968,92.143 533.621,92.556 533.657,93.36C533.664,93.526 533.657,93.682 533.64,93.835L531.331,93.835ZM532.642,93.326C532.658,93.017 532.481,92.76 532.128,92.76C531.696,92.76 531.478,92.978 531.382,93.326" style="fill:rgb(199,47,65);fill-rule:nonzero;"/>
        <path d="M534.557,92.222L535.577,92.222L535.478,92.678L535.49,92.678C535.694,92.352 536.05,92.143 536.474,92.143C536.616,92.143 536.722,92.148 536.83,92.191L536.659,92.995C536.515,92.962 536.381,92.94 536.182,92.94C535.608,92.94 535.399,93.257 535.315,93.73L535.061,95.004L534.012,95.004" style="fill:rgb(199,47,65);fill-rule:nonzero;"/>
        <path d="M537.61,95.083C537.614,95.191 537.66,95.27 537.737,95.33C537.814,95.383 537.919,95.417 538.044,95.417C538.697,95.417 538.692,94.978 538.788,94.536L538.776,94.536C538.625,94.762 538.255,94.87 537.95,94.87C537.223,94.87 536.729,94.426 536.7,93.797C536.666,93 537.168,92.143 538.178,92.143C538.598,92.143 539.006,92.249 539.182,92.614L539.194,92.614L539.263,92.222L540.271,92.222L539.83,94.469C539.597,95.64 539.179,95.978 538.006,95.978C537.319,95.978 536.57,95.803 536.558,95.083L537.61,95.083ZM539.011,93.408C538.997,93.086 538.834,92.839 538.488,92.839C537.95,92.839 537.73,93.295 537.746,93.71C537.761,94.008 537.907,94.253 538.284,94.253C538.802,94.253 539.03,93.83 539.011,93.408Z" style="fill:rgb(199,47,65);fill-rule:nonzero;"/>
        <path d="M540.338,95.218C540.475,95.234 540.605,95.239 540.742,95.239C541.056,95.239 541.075,95.117 541.198,94.934L540.487,92.222L541.555,92.222L541.882,94.178L541.894,94.178L542.765,92.222L543.866,92.222L542.35,94.874C541.894,95.647 541.759,95.935 540.71,95.935C540.538,95.935 540.37,95.921 540.197,95.904" style="fill:rgb(199,47,65);fill-rule:nonzero;"/>
        <path d="M496.91,79.668C496.068,79.116 494.611,78.778 492.406,78.78L477.905,78.78L475.178,92.628L481.45,92.628L482.352,88.034L490.452,88.022C492.946,88.018 494.69,87.48 495.866,86.65C497.04,85.812 497.678,84.682 497.942,83.357C498.036,82.879 498.086,82.442 498.086,82.049C498.072,80.945 497.746,80.225 496.91,79.668ZM493.243,83.078C493.111,83.726 492.456,84.247 491.782,84.245L483.12,84.25L483.6,81.91L492.262,81.907C492.936,81.91 493.375,82.433 493.243,83.078Z" style="fill:rgb(27,94,168);fill-rule:nonzero;"/>
        <path d="M539.825,112.759C539.825,113.878 538.949,114.754 537.806,114.754C536.678,114.754 535.776,113.878 535.776,112.759C535.776,111.667 536.678,110.789 537.806,110.789C538.949,110.789 539.825,111.667 539.825,112.759ZM536.282,112.759C536.282,113.638 536.93,114.334 537.818,114.334C538.685,114.334 539.321,113.638 539.321,112.771C539.321,111.895 538.685,111.185 537.806,111.185C536.93,111.185 536.282,111.895 536.282,112.759ZM537.494,113.794L537.038,113.794L537.038,111.823C537.218,111.787 537.47,111.763 537.794,111.763C538.166,111.763 538.337,111.823 538.481,111.907C538.589,111.991 538.67,112.147 538.67,112.339C538.67,112.555 538.505,112.723 538.265,112.795L538.265,112.819C538.457,112.891 538.565,113.035 538.625,113.299C538.685,113.602 538.721,113.722 538.769,113.794L538.277,113.794C538.214,113.722 538.178,113.542 538.118,113.311C538.082,113.095 537.962,112.999 537.71,112.999L537.494,112.999L537.494,113.794ZM537.506,112.675L537.722,112.675C537.974,112.675 538.178,112.591 538.178,112.39C538.178,112.207 538.046,112.087 537.758,112.087C537.638,112.087 537.554,112.099 537.506,112.111" style="fill:rgb(199,47,65);fill-rule:nonzero;"/>
    </g>
</svg>
