<svg xmlns="http://www.w3.org/2000/svg" xmlns:xlink="http://www.w3.org/1999/xlink" version="1.1" id="Layer_1" x="0px" y="0px" viewBox="1 5.09 510 508.84">
<path id="BackgroundWhite" fill="#FFF" d="M256,513.931c25.811-34.242,61.705-41.251,106.127-45.479 c52.604-4.994,76.113-10.351,106.194-43.813c18.821-20.961,31.973-55.037,31.973-85.897c0-21.561-1.119-39.338-11.751-70.217 c-22.872-66.161-30.087-90.988,22.457-151.68L401.443,7.353C377.867,26.992,326.799,61.271,256,5.092 c-71.288,56.725-120.747,21.38-145.444,2.261L1,116.844c52.26,60.692,47.434,85.666,22.457,151.68 c-11.191,29.745-11.752,49.428-11.752,70.217c0,30.88,12.031,64.835,32.042,85.897c31.061,32.793,54.497,38.791,106.125,43.813 C195.907,472.939,230.185,480.243,256,513.931"/>
<path id="BackgroundBlack" fill="#231F20" d="M256,500.444c26.37-29.746,66.393-36.4,106.687-40.431 c50.584-5.069,70.308-10.303,98.291-40.438c18.192-19.553,30.292-49.975,30.292-80.835c0-20.748-3.286-45.964-12.872-71.912 c-26.165-70.768-20.283-99.957,20.777-149.389l-98.852-98.858c0,0-63.447,58.969-144.323-3.344 c-80.312,62.307-144.323,3.344-144.323,3.344l-98.85,98.85c42.043,49.432,48.059,79.158,20.774,149.39 c-10.144,26.017-12.942,51.158-12.942,71.912c0,30.294,11.962,62.13,30.364,80.835c29.032,29.555,47.85,34.83,98.291,40.438 C189.748,464.522,229.625,470.698,256,500.444"/>
<path id="BadgeWhite" fill="#FFF" d="M256,476.308c41.066-26.397,61.773-25.853,103.886-32.001 c36.522-5.39,60.462-8.272,87.031-34.809c37.705-37.67,34.002-91.131,11.267-151.637c-26.386-70.225-3.082-111.233,19.088-139.315 l-78.622-78.635c0,0-61.773,48.852-142.649-3.925c-80.873,52.783-142.646,3.925-142.646,3.925l-78.703,78.643 c21.967,28.082,46.173,68.523,19.17,139.315c-23.156,60.724-25.813,113.959,11.262,151.629 c26.375,26.728,50.02,29.515,87.029,34.815C195.347,450.455,215.006,449.91,256,476.308"/>
<path id="BadgeRed" fill="#EC1C24" d="M256,451.036c44.421-24.636,71.503-22.128,121.308-29.752 c85.138-13.091,79.96-84.341,74.576-112.022c-1.326-6.846-3.847-17.546-5.808-23.366c-6.928-20.01-22.524-58.3-19.936-96.575H85.862 c3.217,39.976-13.852,80.712-20.567,99.698c-1.472,4.242-3.361,11.921-4.338,16.498c-5.387,24.227-15.041,101.591,73.736,115.746 C187.859,429.782,211.575,426.4,256,451.036"/>
<g id="Lettering" fill="#231F20">
	<path d="M105.938,93.186H91.249v73.078h14.688v-23.827c4.058-0.16,27.983,2.323,28.544-23.409 C135.253,90.484,111.823,93.186,105.938,93.186z M105.938,130.355v-26.181c2.941,0,14.972-1.649,15.044,12.817 C121.05,133.305,105.938,130.355,105.938,130.355z"/>
	<polygon points="141.969,93.459 155.469,93.459 155.469,122.105 169.46,122.105 169.46,93.459 183.592,93.459 183.592,165.907 169.46,165.907 169.46,134.901 155.469,134.901 155.469,165.907 141.969,165.907  "/>
	<rect x="198.284" y="93.421" width="14.691" height="72.486"/>
	<polygon points="227.596,93.298 242.217,93.298 242.217,154.426 258.029,154.426 258.029,165.768 227.596,165.768"/>
	<polygon points="265.373,93.459 279.994,93.459 279.994,154.553 295.803,154.553 295.803,165.921 265.373,165.921"/>
	<rect x="303.017" y="93.459" width="14.621" height="72.448"/>
	<path d="M346.665,93.186h-14.619v73.078h14.619v-23.827c4.059-0.16,27.984,2.323,28.545-23.409 C375.981,90.484,351.701,93.186,346.665,93.186z M346.665,130.355v-26.181c2.938,0,14.97-1.649,15.037,12.817 C361.702,133.305,348.832,130.355,346.665,130.355z"/>
	<path d="M401.861,90.883c20.639,0,22.176,13.09,21.902,23.311h-14.348c-0.067-15.98-15.74-13.559-15.59-3.639 c0,5.507,10.071,11.3,18.467,16.427c7.487,4.622,12.604,12.052,12.803,20.188c0.144,7.13-3.067,20.52-23.222,20.52 c-20.632,0-22.306-15.327-22.381-24.031h13.786c0,17.77,16.725,15.622,16.855,4.031c0,0,0.982-5.415-8.192-10.935 c-10.343-6.172-22.025-10.808-21.745-25.907C380.176,106.688,381.084,90.883,401.861,90.883"/>
</g>
<g id="Numbers" fill="#FFF">
	<path d="M222.281,225.573c-47.783-15.76-81.993,9.815-99.971,59.81c-12.803,35.493-24.485,78.602,14.272,93.495 c24.273,9.346,65.48,5.608,84.298-25.284c15.04-24.745,22.456-63.183-7.624-74.052c-26.515-9.585-43.376,4.693-43.376,4.693 s11.402-37.694,29.104-37.694c11.474,0,8.953,16.496,8.953,16.496l40.159,2.958C250.613,258.783,247.047,233.698,222.281,225.573z M179.885,301.076c13.433,2.78,8.813,20.688,4.127,33.374c-4.758,12.816-14.272,26.739-25.885,23.584 c-10.911-2.863-6.084-23.086-0.417-35.915C162.677,310.955,169.881,299,179.885,301.076z"/>
	<path d="M396.121,265.995c2.528-7.212-1.045-32.206-25.811-40.422c-46.307-15.481-81.777,8.69-99.971,59.81 c-12.731,35.533-24.414,78.602,14.271,93.495c24.281,9.346,65.409,5.608,84.231-25.284c15.111-24.745,22.524-63.183-7.557-74.052 c-26.514-9.585-43.376,4.693-43.376,4.693s11.409-37.694,29.036-37.694c11.546,0,9.024,16.496,9.024,16.496L396.121,265.995z M327.912,301.076c13.438,2.78,8.82,20.688,4.058,33.374c-4.687,12.816-14.196,26.739-25.878,23.584 c-10.774-2.863-6.3-23.086-0.629-35.915C310.354,310.955,317.979,299,327.912,301.076z"/>
</g>
<g id="RegisteredTrademark" fill="#231F20">
	<path d="M482.553,442.811c-9.244,0-16.745,7.502-16.745,16.751c0,9.244,7.501,16.753,16.745,16.753 c9.25,0,16.758-7.502,16.758-16.753C499.297,450.313,491.803,442.811,482.553,442.811z M482.553,473.117 c-7.481,0-13.563-6.066-13.563-13.562c0-7.494,6.067-13.555,13.563-13.555c7.493,0,13.561,6.061,13.561,13.555 C496.113,467.051,490.046,473.117,482.553,473.117z"/>
	<path d="M490.196,455.402c0-3.73-2.124-5.568-6.756-5.568h-7.563v19.443h3.066v-8.369h3.218l5.274,8.369h3.266 l-5.622-8.594C487.997,460.383,490.196,458.906,490.196,455.402z M482.066,458.483h-3.129h-0.013v-6.204h4.003 c2.063,0,4.276,0.418,4.276,2.993C487.211,458.333,484.704,458.483,482.066,458.483z"/>
</g>
</svg>