<?xml version="1.0" encoding="UTF-8"?>
<svg width="1001px" height="176px" viewBox="0 0 1001 176" version="1.1" xmlns="http://www.w3.org/2000/svg" xmlns:xlink="http://www.w3.org/1999/xlink">
    <title>Shape</title>
    <g id="Page-1" stroke="none" stroke-width="1" fill="none" fill-rule="evenodd">
        <path d="M54.7014072,68.1290954 C36.529092,56.2386765 22.9637881,48.780176 22.5718088,33.9080258 C22.2978526,23.5137201 28.5562526,8.45369815 41.9420827,8.59930516 C56.3064346,8.75555833 61.8923408,19.7747523 66.0357646,30.7844732 L73.5083414,29.1556297 C71.7429997,15.3966245 70.8160291,12.3890332 70.0314308,4.52674319 C65.2943374,3.06104886 52.9617744,4.63995494e-06 44.9471147,4.63995494e-06 C16.5455002,4.63995494e-06 2.26475351,21.6778187 2.26475351,41.2770204 C2.26475351,62.3871137 17.8157159,72.2959087 36.1061163,82.9568926 C50.8173301,91.6927713 58.4518653,103.606598 58.7328952,115.916971 C58.9984092,127.547812 48.7745308,139.233315 36.0491531,139.492519 C19.579147,139.827997 11.9993888,126.30319 7.30233852,114.12712 L-2.93984669e-07,117.144202 C1.28973394,129.624363 3.88973134,138.439074 4.98857776,144.513708 C8.0088769,145.407541 9.72901248,146.363766 13.9196774,147.185404 C20.0088499,148.379266 23.618953,149.009744 31.0726369,149.009744 C54.4270066,149.009744 80.7799033,133.154851 80.7799033,104.913826 C80.7799033,87.6991313 70.9195669,79.143544 54.7014072,68.1290954 Z M610.12069,111.852096 L610.12069,104.704493 L609.477619,104.630054 C599.472453,103.431246 597.780683,101.19985 592.438551,87.4331463 C581.694637,58.3306276 571.681051,30.773907 560.767857,4.63995494e-06 L552.110927,2.26606211 L518.178778,88.1074708 C512.558899,101.951796 511.040907,101.131412 500.532648,102.838484 L500.532648,109.652563 L538.128343,110.185857 L538.128343,103.17166 C526.062103,101.648843 525.583204,100.72309 528.393148,91.5862565 C530.376638,84.8182274 532.476463,79.8478607 534.625244,73.7566443 L565.385283,73.7564755 C568.360518,81.8780943 570.679016,88.9091669 572.497215,94.4927804 C574.976578,101.59922 573.322007,102.299858 563.993694,103.704857 L563.993694,110.585755 L610.12069,111.852096 Z M842.621704,130.954274 L843.864964,130.944212 C854.984598,130.829735 864.18656,129.798167 868.591828,128.81921 C872.301363,120.400414 874.967611,111.873379 878.000343,102.585393 L870.950777,99.2194143 C863.990344,112.807006 856.040032,122.144117 841.311819,122.144117 C818.784987,122.144117 801.154968,95.2337988 800.92413,62.7627149 C800.792306,44.218993 809.913046,9.29189157 837.456365,8.93671176 C851.518972,8.75537171 863.028814,14.8998544 867.771594,33.5222317 L875.024041,32.1378231 C874.008835,22.154976 872.824429,14.0410796 871.30162,4.7350452 C866.733195,3.71983951 855.25028,0.200130972 841.545003,0.200130972 C804.454093,0.200130972 777.373073,25.6572935 777.418004,64.680222 C777.454252,95.9157835 800.629032,131.119143 842.621704,130.954274 Z M162.809607,129.050928 L162.809607,121.919508 L162.021431,121.901179 C149.388997,121.646781 148.496984,123.441194 148.496984,104.590718 L148.496984,68.6955542 C151.159891,68.3249384 152.410449,70.1940401 156.071997,75.5678676 C168.887218,95.024857 181.28724,112.909886 190.441002,125.695906 L222.124902,122.986025 L222.124902,116.122998 C214.968297,115.011168 210.973937,115.824426 203.318118,105.817967 C192.666439,91.5495104 179.71847,74.0611882 167.812046,55.6828371 C176.868527,44.6663358 184.86472,33.2963786 192.881432,22.7522625 C202.534524,12.7458126 207.610802,11.0314799 218.761766,9.73434672 L218.761766,2.53801887 L175.854823,2.53801887 L175.854823,9.80081852 L179.654779,10.1210917 C187.781943,11.2329304 186.22964,12.6835175 182.255862,20.2627424 C176.097889,29.3426661 169.206949,40.0651275 159.546402,51.6718416 C154.553481,57.045669 151.99205,59.236137 148.496984,60.9370687 L148.496984,28.5311325 C148.496984,12.4096234 149.495021,11.2978026 161.810957,10.0006694 L161.810957,2.53801887 L113.944045,2.53801887 L113.944045,9.93401983 C126.759337,11.231153 127.990434,12.3429739 127.990434,28.4644829 L127.990434,109.856031 C127.990434,125.792228 126.288054,124.460366 114.443321,127.053521 L114.443321,134.38297 L162.809607,129.050928 Z M320.667259,115.317409 L320.667259,107.903413 L319.701714,107.942354 C304.263151,108.526325 304.978136,106.491737 304.978136,91.8998736 L304.978136,69.5653929 C304.978136,64.8277752 305.824408,62.7973727 308.124145,58.398148 C316.173276,42.8316963 319.876635,35.4834342 326.682992,22.0625376 C332.925174,12.0796905 335.5133,11.136333 346.190697,9.95192634 L346.190697,2.53801887 L306.937641,2.53801887 L306.937641,9.75197774 C320.082476,11.5104413 319.35061,12.0603532 316.393797,19.5051861 C312.122842,29.8264262 304.949575,45.6992347 299.857275,55.8512738 C293.122304,43.3304303 287.472876,30.9076504 281.394963,18.3868158 C278.438141,12.4647915 277.93116,11.2747952 289.101373,9.75197774 L289.101373,2.53801887 L243.513759,2.53801887 L243.513759,9.88527681 C254.879966,11.0696834 256.447803,13.5901111 262.689967,24.9265569 C272.217491,43.5474856 276.363812,52.9474159 281.291843,62.5918522 C283.263052,66.6526661 284.053337,68.1754657 284.053337,72.2362885 L284.053337,92.3711569 C284.053337,107.260814 285.227738,110.051687 268.508667,111.302539 L268.508667,118.649984 L320.667259,115.317409 Z M465.492691,97.0458377 L465.999659,96.652563 C478.045015,87.4070553 486.045421,71.1692561 486.045421,53.1289959 C486.045421,35.9952848 479.861322,24.4787431 471.570493,16.5263074 C461.212934,6.91199669 445.831252,2.53801887 424.511968,2.53801887 L376.249797,2.53801887 L376.25001,9.95192634 C388.601653,11.136333 389.591683,10.9160252 389.591638,25.4672712 L389.591452,90.5223433 C389.591416,103.166524 387.558721,103.834832 374.726997,105.371397 L374.726997,112.518422 L418.235493,111.043788 C438.17452,110.367991 453.939494,105.895648 465.492691,97.0458377 L465.492691,97.0458377 Z M735.020422,119.075572 L735.186762,47.5299196 C735.221775,32.468547 735.677569,24.7849933 736.335,19.5397727 C737.15678,11.9257567 740.506097,9.99268031 749.38138,9.48507746 L749.38138,2.53801887 L708.437905,2.53801887 L708.437905,9.75167559 C720.271618,10.4284794 724.487646,12.8334878 724.476324,21.1114309 C724.805031,26.0182496 725.626819,33.9706853 725.626819,49.0295341 L725.626819,83.2080724 L662.711659,2.53801887 L633.540554,2.53801887 L633.540554,9.61870533 C640.772277,10.2955091 644.621359,11.4824929 647.908496,15.7125077 C650.866927,19.6041206 650.696082,21.9703479 650.696082,33.6452045 L650.696082,67.8494517 C650.696082,83.0775105 650.207229,90.6915443 649.549798,96.2751667 C648.892368,103.889192 645.381092,105.927308 635.677205,106.10424 L635.677205,112.985138 L676.853509,114.884649 L676.853509,107.937129 C663.517914,106.260582 661.896989,105.05299 661.075209,93.4348302 C660.582136,88.3588106 660.257952,81.2446483 660.257952,66.0165896 L660.257952,30.9555492 L726.81718,118.57571 L735.020422,119.075572 Z M906.478355,137.466853 L994.01372,150.796609 L994.342639,149.501525 C996.012985,142.947395 999.021766,131.342722 1000,123.406539 L992.71281,120.950424 C989.041131,129.76518 988.376235,130.389464 985.062598,134.737937 C981.051274,140.121753 973.494372,138.598145 962.949883,137.185317 C955.035828,136.124932 950.584617,135.718387 946.089328,132.786776 C942.343269,130.343769 943.052242,119.532521 943.052242,109.593156 L943.052331,75.6006414 L958.907455,76.6609644 C973.472333,77.6350073 976.22958,77.4249724 977.672054,90.3596207 L985.025364,90.7487918 L985.52799,56.8029137 L977.97411,56.2650519 C976.531636,68.6391687 973.629449,67.6597405 958.968684,66.9001136 L943.052331,66.0754278 L943.052242,17.8611909 C943.052242,11.2349476 941.501086,11.3539304 950.079414,11.3539304 L960.369213,11.3539304 C971.182344,11.3539304 977.947627,11.4455513 980.73811,15.5869489 C983.528593,19.5212708 984.678875,21.7359193 986.248516,29.6045721 L993.945559,28.5893575 C993.247961,16.3722137 992.293984,6.67941648 992.119629,2.53801887 L908.745595,2.53801887 L908.745595,9.83098854 C922.711871,11.0734158 921.954999,11.0885586 921.954999,29.6641745 L921.954999,110.214366 C921.954999,128.904272 924.714823,131.803394 906.478355,130.307351 L906.478355,137.466853 Z M410.521348,88.4230189 L410.520667,20.6424848 C410.520667,15.0588624 411.028261,14.1868732 412.38186,12.8332745 C413.735467,11.6488679 417.339998,10.4980082 423.927798,10.8794301 C436.662294,11.6167517 440.65285,14.0559913 446.776182,18.1044706 C456.75903,25.8877053 462.640104,36.8894549 462.640104,56.1746129 C462.640104,85.2771228 445.336748,101.966592 424.830819,102.314165 C412.628214,102.520999 410.563889,98.0986378 410.521348,88.4230189 L410.521348,88.4230189 Z M537.837627,64.0005123 L550.273221,29.7518587 L562.041529,64.0005123 L537.837627,64.0005123 Z M1000.42668,175.52054 L996.348389,174.669184 C985.707806,172.438223 973.49661,169.83199 962.083531,167.965808 C803.830486,142.089196 681.439161,129.713638 507.173919,128.52054 C328.505918,128.52054 202.401082,142.089204 39.8184817,167.965808 C26.5638478,170.075406 12.2615701,173.130692 0.426676,175.52054 C8.47301615,174.206056 22.7478901,171.365097 31.1860468,170.191987 C212.581649,143.988562 325.460755,136.299454 507.173919,136.157611 C686.178857,137.890261 793.920619,143.988569 970.485707,170.191987 C978.699173,171.365106 992.594536,174.206056 1000.42668,175.52054 Z" id="Shape" fill="#000000" fill-rule="nonzero"></path>
    </g>
</svg>