<svg width="60" height="60" viewBox="0 0 60 60" fill="none" xmlns="http://www.w3.org/2000/svg">
<rect width="60" height="60" fill="#6EBE44"/>
<path d="M49.5929 21.3378L32.3516 24.6592V25.8227L32.4064 25.809C43.7963 23.1301 49.5925 21.5188 49.6394 21.5074C49.7038 21.4912 49.7264 21.4426 49.7176 21.4018C49.708 21.3588 49.6615 21.3232 49.5929 21.3378Z" fill="#49266C"/>
<path d="M35.5752 21.0204C34.7371 21.0666 33.1853 22.2677 32.3334 22.9811C28.9414 25.8207 26.4192 28.4308 24.5853 31.1644C20.7623 33.1457 15.8874 35.1833 11.0481 36.7736L10.9314 36.8116L10 39.2383L10.5318 39.0395C13.6104 37.9043 18.7489 35.7724 23.4071 33.4024C23.1447 34.0793 23.0125 34.7015 23.0125 35.2687C23.0125 35.6918 23.0857 36.0853 23.2318 36.4428C23.5246 37.157 24.102 37.6979 24.9025 38.0051C26.0945 38.4655 27.7209 38.474 29.5765 37.9302C34.3171 36.54 39.9401 32.2712 41.1643 31.4223L41.2112 31.3903C41.2593 31.3567 41.2626 31.3061 41.2426 31.2716C41.2158 31.2324 41.1593 31.2219 41.1129 31.2494L41.0526 31.2846C39.7388 32.0477 33.3547 35.7153 29.205 36.7922C27.0912 37.3408 25.4803 37.0412 24.8727 36.2189C24.6619 35.938 24.5602 35.5825 24.5602 35.1679C24.5602 34.3586 24.9539 33.3283 25.7121 32.183C26.41 31.7988 27.0619 31.4231 27.6493 31.066C31.6978 28.8644 36.3622 24.5839 36.5614 21.971C36.5622 21.9532 36.5622 21.9325 36.5622 21.9131C36.5622 21.6876 36.4614 21.4556 36.2844 21.2844C36.0945 21.0969 35.8443 21.0034 35.5752 21.0204ZM35.1238 22.2657C35.3894 22.0993 35.466 22.2034 35.3878 22.3912C35.2614 22.6912 34.6769 24.4961 30.3367 27.9438C29.2041 28.8413 28.3987 29.3454 26.7677 30.2798C29.4384 26.6584 33.3376 23.388 35.1238 22.2657Z" fill="black"/>
<path d="M32.2953 24.6702L14.1556 28.443L13.4561 30.2685L32.3518 25.8224L32.9363 25.5029L32.92 24.6722L32.2953 24.6702Z" fill="#49266C"/>
</svg>
